<?xml version="1.0" encoding="utf-8"?>
<!-- Generator: Adobe Illustrator 24.1.2, SVG Export Plug-In . SVG Version: 6.00 Build 0)  -->
<svg version="1.1" id="Ebene_1" xmlns="http://www.w3.org/2000/svg" xmlns:xlink="http://www.w3.org/1999/xlink" x="0px" y="0px"
	 viewBox="0 0 1275.6 1445.7" style="enable-background:new 0 0 1275.6 1445.7;" xml:space="preserve">
<style type="text/css">
	.st0{fill:#FFFFFF;}
	.st1{fill:#622E88;}
</style>
<path class="st0" d="M1226.3,338.8L676.1,21.2c-23.7-13.7-52.9-13.7-76.6,0L49.3,338.9c-23.7,13.7-38.3,39-38.3,66.4v635.2
	c0,27.4,14.6,52.7,38.3,66.4l550.1,317.6c23.7,13.7,52.9,13.7,76.6,0l550.2-317.6c23.8-13.8,38.4-39.1,38.4-66.5V405.2
	C1264.6,377.8,1250,352.5,1226.3,338.8z M1216,1044.5c0,7.5-4.1,14.4-10.5,18.1l-557.2,321.7c-6.5,3.7-14.5,3.7-21,0L70.1,1062.6
	c-6.5-3.7-10.5-10.6-10.5-18.1V401.1c0-7.4,4-14.3,10.5-18.1L627.3,61.3c6.5-3.7,14.5-3.7,21,0L1205.5,383
	c6.5,3.7,10.5,10.6,10.5,18.1V1044.5z"/>
<path class="st1" d="M1275.6,405.2C1275.6,405.2,1275.6,405.2,1275.6,405.2l0-405.2H637.8H0v405.2v15.3v604.8v15.2v405.3h637.8
	h637.8v-405.3c0,0,0,0,0,0V405.2z M605,1414.9L54.8,1097.2c-20.3-11.7-32.8-33.4-32.8-56.8V405.2c0-23.4,12.5-45.1,32.8-56.8
	L605,30.8c10-5.8,21.3-8.8,32.8-8.8s22.8,3,32.8,8.8l550.2,317.6c20.3,11.7,32.8,33.4,32.8,56.8v635.3c0,23.4-12.5,45.1-32.8,56.8
	l-550.2,317.6C650.3,1426.6,625.3,1426.6,605,1414.9z"/>
</svg>
