<?xml version="1.0" encoding="utf-8"?>
<!-- Generator: Adobe Illustrator 24.1.2, SVG Export Plug-In . SVG Version: 6.00 Build 0)  -->
<svg version="1.1" id="Ebene_1" xmlns="http://www.w3.org/2000/svg" xmlns:xlink="http://www.w3.org/1999/xlink" x="0px" y="0px"
	 viewBox="0 0 1275.6 1445.7" style="enable-background:new 0 0 1275.6 1445.7;" xml:space="preserve">
<style type="text/css">
	.st0{fill:#FFFFFF;}
	.st1{fill:#622E88;}
</style>
<path class="st0" d="M1226.3,338.8L676.1,21.2c-23.7-13.7-52.9-13.7-76.6,0L49.3,338.9c-23.7,13.7-38.3,39-38.3,66.4v635.2
	c0,27.4,14.6,52.7,38.3,66.4l550.1,317.6c23.7,13.7,52.9,13.7,76.6,0l550.2-317.6c23.8-13.8,38.4-39.1,38.4-66.5V405.2
	C1264.6,377.8,1250,352.5,1226.3,338.8z M1216,1044.5c0,7.5-4.1,14.4-10.5,18.1l-557.2,321.7c-6.5,3.7-14.5,3.7-21,0L70.1,1062.6
	c-6.5-3.7-10.5-10.6-10.5-18.1V401.1c0-7.4,4-14.3,10.5-18.1L627.3,61.3c6.5-3.7,14.5-3.7,21,0L1205.5,383
	c6.5,3.7,10.5,10.6,10.5,18.1V1044.5z"/>
<path class="st1" d="M637.8,1445.7c-15.4,0-30.5-4-43.8-11.7L43.8,1116.3C16.7,1100.7,0,1071.7,0,1040.4V405.2
	c0-31.3,16.7-60.2,43.8-75.9L594,11.7c27.1-15.6,60.5-15.6,87.6,0l550.2,317.6c27.1,15.7,43.8,44.6,43.8,75.9v635.2
	c0,31.3-16.7,60.2-43.8,75.9L681.6,1434C668.3,1441.6,653.2,1445.7,637.8,1445.7z M637.8,22c-11.5,0-22.8,3-32.8,8.8L54.8,348.4
	C34.5,360.1,22,381.8,22,405.2v635.2c0,23.4,12.5,45.1,32.8,56.8L605,1414.9c20.3,11.7,45.3,11.7,65.6,0l550.2-317.6
	c20.3-11.7,32.8-33.4,32.8-56.8V405.2c0-23.4-12.5-45.1-32.8-56.8L670.6,30.8C660.6,25,649.3,22,637.8,22z"/>
</svg>
