<?xml version="1.0" encoding="utf-8"?>
<!-- Generator: Adobe Illustrator 24.1.2, SVG Export Plug-In . SVG Version: 6.00 Build 0)  -->
<svg version="1.1" xmlns="http://www.w3.org/2000/svg" xmlns:xlink="http://www.w3.org/1999/xlink" x="0px" y="0px"
	 viewBox="0 0 1275.6 1445.7" enable-background="new 0 0 1275.6 1445.7" xml:space="preserve">
<g id="Hexagon">
	<g>
		<path fill="#FFFFFF" d="M1264.6,1040.4V405.2c0-27.4-14.6-52.7-38.3-66.4L676.1,21.2c-23.7-13.7-52.9-13.7-76.6,0L49.3,338.9
			c-23.7,13.7-38.3,39-38.3,66.4v635.2c0,27.4,14.6,52.7,38.3,66.4l550.1,317.6c23.7,13.7,52.9,13.7,76.6,0l550.2-317.6
			C1250,1093.1,1264.6,1067.8,1264.6,1040.4z"/>
		
			<radialGradient id="SVGID_1_" cx="637.7794" cy="722.8359" r="622.7358" fx="646.8144" fy="1271.9352" gradientTransform="matrix(1 0 0 1 -3.493562e-02 0)" gradientUnits="userSpaceOnUse">
			<stop  offset="0" style="stop-color:#677074"/>
			<stop  offset="1" style="stop-color:#263238"/>
		</radialGradient>
		<path fill="url(#SVGID_1_)" d="M1216,1044.5V401.1c0-7.5-4-14.4-10.5-18.1L648.3,61.3c-6.5-3.7-14.5-3.7-21,0L70.1,383
			c-6.5,3.8-10.5,10.7-10.5,18.1v643.4c0,7.5,4,14.4,10.5,18.1l557.2,321.7c6.5,3.7,14.5,3.7,21,0l557.2-321.7
			C1211.9,1058.9,1216,1052,1216,1044.5z"/>
		<path fill="#622E88" d="M637.8,1445.7c-15.4,0-30.5-4-43.8-11.7L43.8,1116.3C16.7,1100.7,0,1071.7,0,1040.4V405.2
			c0-31.3,16.7-60.2,43.8-75.9L594,11.7c27.1-15.6,60.5-15.6,87.6,0l550.2,317.6c27.1,15.7,43.8,44.6,43.8,75.9v635.2
			c0,31.3-16.7,60.2-43.8,75.9L681.6,1434C668.3,1441.6,653.2,1445.7,637.8,1445.7z M637.8,22c-11.5,0-22.8,3-32.8,8.8L54.8,348.4
			c-20.3,11.7-32.8,33.4-32.8,56.8v635.2c0,23.4,12.5,45.1,32.8,56.8L605,1414.9c20.3,11.7,45.3,11.7,65.6,0l550.2-317.6
			c20.3-11.7,32.8-33.4,32.8-56.8V405.2c0-23.4-12.5-45.1-32.8-56.8L670.6,30.8C660.6,25,649.3,22,637.8,22z"/>
	</g>
</g>
<g id="FeatherBackground">
	<path fill="#FFFFFF" d="M813.5,1053.6c-18.3-86.1-88.6-171.8-211.9-299.9c-70.7-73.5-100.4-148.8-88.1-224.1
		c14.6-89.8,86.2-166.7,143.7-215.4c63.4-53.7,124.6-86.1,125.2-86.4l120.1-62.7l-135.3,6.1c-0.5,0-52.7,2.4-115.4,16.2
		c-59.2,13-140.1,39.3-189.4,90.5c-31.3,32.5-54.8,63.6-69.8,92.4c-5.3,10.2-9.6,20.3-12.9,30.1l-23.1-54.6l-20.5,91.3
		c-16.3,72.6-19.4,133.5-9.3,182.2l-40-37.8l25.2,99.9c8.2,32.6,18.9,61.3,31.9,85.7l-41.1-15l72.8,86.3c1.1,1.3,2.2,2.5,3.2,3.8
		l-101-21.8l140.5,98c69.4,43.4,95.2,69,104.6,81.4l-45.6,21.7l62.7,29.2c3.1,1,6.1,1.8,9.2,2.4c14.6,2.9,28.8,1.3,41.1-4.3
		c14.8,25.6,6,43.9,4.5,46.6l-38.9,78.7l45.3-18.4l2.7,3.2c29,34.6,40.2,75.9,33.1,122.7c-5.6,36.8-20.7,63.4-20.8,63.6l-17.8,30.4
		c0,0,69.7,53.3,135.8-54.1S831.6,1138.7,813.5,1053.6L813.5,1053.6z"/>
</g>
<g id="Feather">
	<g>
		<path fill="#FFFFFF" d="M704.3,1326.1c-28.4,41.7-65.2,32.4-65.2,32.4s68.5-117.3-14.8-216.7c0,0,46.8-30.9,15.7-79.3L653,1012
			l112.4,145.3L704.3,1326.1z"/>
		<path fill="#6A1B9A" d="M695.1,1320.9c0.2-0.4,20.4-42.6,25.2-99.2c4.3-50.5-3-122.9-61.1-185.1c-1.8,18.2-8.9,61.8-36.9,77.2
			l-11.5,6.3l6.9-11.2c1.1-1.9,26.7-45.9-22.6-97.4c-5,7-17.7,20.1-40.7,15.5c-2.1-0.4-4.2-1-6.3-1.6l-9.7-3.1l9.5-3.6
			c0.2-0.1,6.2-2.5,6.9-9.8c1.2-13-13.1-44.9-122.3-113.1l-25.9-16.2l28.9,9.9c0.2,0.1,16.8,5.7,36.7,9.6c15.7,3.1,29,4.3,39.5,3.6
			c-24.7-6.2-68.1-25-115.8-81.5l-8.5-10.1l12.4,4.5c0.2,0.1,15.6,5.7,34.4,10.1c-32.5-16.6-72.7-56.5-96.5-150.9l-2.9-11.7l8.8,8.3
			c0.3,0.2,26,24.1,66.7,32.5c-11.2-6.5-24.2-17.2-35.6-34.6C343.2,621.2,339,545,361.9,442.9l2.4-10.7l4.3,10.1
			c0.1,0.4,13.1,30.4,42,47.3c-5.2-7.7-10.4-18.9-11.9-34.1c-4.4-43.9,23.5-97.5,82.9-159.2c44.7-46.4,120.3-70.8,175.9-83
			c60-13.2,110.3-15.6,110.8-15.6l15.8-0.7l-14,7.3c-0.6,0.3-63.9,33.6-130.1,89.7c-60.9,51.6-136.8,133.6-152.7,231.4
			c-13.7,83.9,18.3,166.9,95.2,246.7c119.9,124.5,188.1,207.2,205.1,287.1c16.9,79.3-17.3,154.3-86.2,265.1L695.1,1320.9z"/>
		<path fill="#975FB8" d="M768.4,201.2c0,0-492.9,257.2-188.5,573.3c246.3,255.9,258.7,322.4,118.4,547.9c0,0,82.1-169.3-42-293.9
			c0,0-2,63.7-35.7,82.2c0,0,30-49.2-26.2-104.9c0,0-11,23.4-39.4,17.7c-1.9-0.4-3.9-0.9-5.9-1.5c0,0,57.5-21.5-114.8-129.2
			c0,0,16.8,5.7,37.2,9.8c20.4,4,44.4,6.4,58.8-0.5c0,0-4.3,0-11.9-1.5c-21.1-4.2-67.9-20.2-119.7-81.7c0,0,21.2,7.8,44.7,12.4
			c15.3,3,31.5,4.7,43.4,2.1c0,0-9.4,1.6-23.8-1.3c-32.7-6.5-90.9-35.7-121.8-158.2c0,0,26.5,25.1,69.4,33.6
			c8.1,1.6,16.8,2.6,26.1,2.7c0,0-0.5-0.1-1.4-0.2c-13.8-2.7-122.5-31.9-69.7-266.5c0,0,17.8,42.2,59.5,56.3
			c0,0-80.7-55.9,59.2-201.2C569.4,210.1,768.4,201.2,768.4,201.2 M799.7,192.8l-31.6,1.4c-0.5,0-51.1,2.4-111.4,15.7
			c-35.5,7.8-67.5,17.8-95,29.8c-34.8,15.1-62.6,33.3-82.7,54.2c-32.8,34.1-56.4,66.3-70.1,95.7c-11.1,24-15.8,46.3-13.8,66.3
			c0.9,8.7,2.9,16.2,5.5,22.5c-19.6-16.3-28.7-37.1-28.8-37.4l-8.5-20.1l-4.8,21.3c-12.6,56.2-17,105.3-13.1,146
			c3.2,33.4,12.1,61.4,26.3,83.2c6.6,10.1,13.7,18,20.7,24.2c-28.8-10.1-46.3-26.3-46.5-26.5l-17.5-16.4l5.9,23.3
			c19.5,77.2,50,118.5,78.5,140.5c-7.1-2.2-11.7-3.9-11.8-3.9l-24.8-9l17,20.2c35.7,42.3,69.1,63.8,94.3,74.7
			c-4.6-0.6-9.5-1.4-14.7-2.4c-19.6-3.9-36.1-9.5-36.2-9.5l-57.7-19.7l51.7,32.3c111.3,69.5,121.5,99.9,120.7,109.7
			c-0.4,4.8-4,6.7-4.7,7l-20.6,6.8l21,6.5c2.2,0.7,4.5,1.3,6.7,1.7c20.1,4,34.1-4.8,41.7-13.5c17.7,19.6,26.6,40.2,26.3,61.3
			c-0.2,17.4-6.9,28.8-7,28.9l-13.2,22.2l22.6-12.4c25.9-14.3,34.8-50.9,37.8-72.3c42.4,48.2,60.9,107.4,55.1,176.5
			c-4.8,56-24.7,97.8-24.9,98.2l12.3,6.8c69.4-111.6,103.8-187.3,86.7-267.7c-17.2-80.7-85.6-163.7-206-288.8
			c-76-79-107.7-161-94.2-243.7c15.8-96.7,91.2-178.1,151.6-229.3c65.9-55.8,128.7-88.8,129.3-89.2L799.7,192.8L799.7,192.8z"/>
		<path fill="#40105C" d="M698.3,1322.4c140.3-225.5,127.9-292-118.4-547.9C275.5,458.4,768.4,201.2,768.4,201.2
			s-52.3,2.3-114.7,16.5c0,0-186.6,132.1-206.6,314.7C427.2,715,551,821.9,632,899.1C831,1088.3,698.3,1322.4,698.3,1322.4z"/>
	</g>
</g>
</svg>
