<?xml version="1.0" encoding="utf-8"?>
<svg version="1.1" id="Ebene_2" xmlns="http://www.w3.org/2000/svg" xmlns:xlink="http://www.w3.org/1999/xlink" x="0px" y="0px"
	 viewBox="0 0 3000 225">
<path fill="#C9AD6A" d="M2826.53,122.14c15.02,12.71,40.39,27.86,75.97,27.86c35.53,0,60.61-12.94,75.39-23.79
	c11.83-8.68,19.02-17.29,22.11-21.41c0-0.8,0-5.3,0-5.3l-0.76,1.19c-0.3,0.46-30.4,46.31-96.74,46.31
	c-34.62,0-59.32-14.72-73.94-27.07c-15.89-13.42-23.68-27.03-23.75-27.17l-0.43-0.76h-15.99c-3.06-2.76-6.23-5.24-9.6-7.33
	c-0.07-0.05-0.15-0.09-0.22-0.14c-7.11-4.37-15.14-7.03-25.06-7.03h-2510c-15.21,0-151.23-1.75-241.32-62.49L0,13.54v7.34
	c0-0.02,0-0.06,0-0.12c37.76,25.15,87.07,43.21,146.6,53.69c47.69,8.39,86.22,9.05,96.9,9.05h2510c8.53,0,15.5,2.25,21.77,6.06
	l2.46,2.44H182.5c-57.17,0-92.18,27.64-99.93,34.44c-3.47-8.2-17.94-39.61-45.02-64.56L0,20.92v0.01v4.43l22.15,24.17
	c-6.62-4.57-13.8-8.63-21.57-11.9L0,37.37c0,0,0,2.63,0,3.26c13.58,5.81,25.33,14.09,35.35,23.28l0.57,0.62l0.05-0.05
	c30.34,28.17,44.44,64.56,44.63,65.05l0.82,2.17l1.64-1.64C83.41,129.71,118.93,95,182.5,95h2598.25l28.99,28.77
	c2.96,3.14,6.08,6.29,9.44,9.37l92.61,91.91L2920,225l-73.28-72.86c15.2,7.42,34.38,12.36,59.78,12.36
	c30.83,0,62.27-13.18,93.5-39.19c0-1.31,0-7.86,0-7.86l-1.94,1.65c-30.75,26.14-61.56,39.39-91.56,39.39
	c-42.23,0-66.02-13.75-83.68-30.12l-7.97-7.92c-3.6-3.8-6.99-7.65-10.31-11.41c-4.39-4.99-8.61-9.77-12.97-14.04h11.07
	C2804.53,98.11,2812.24,110.05,2826.53,122.14z"/>
</svg>
