<?xml version="1.0" encoding="utf-8"?>
<!-- Generator: Adobe Illustrator 24.1.2, SVG Export Plug-In . SVG Version: 6.00 Build 0)  -->
<svg version="1.1" id="Ebene_1" xmlns="http://www.w3.org/2000/svg" xmlns:xlink="http://www.w3.org/1999/xlink" x="0px" y="0px"
	 viewBox="0 0 900 600" style="enable-background:new 0 0 900 600;" xml:space="preserve">
<style type="text/css">
	.st0{fill:#FFFFFF;}
	.st1{fill:#B22234;}
	.st2{fill:#3C3B6E;}
	.st3{clip-path:url(#SVGID_2_);}
	.st4{fill:#00247D;}
	.st5{stroke:#FFFFFF;stroke-width:130;stroke-miterlimit:86.6667;}
	.st6{clip-path:url(#SVGID_4_);fill:none;stroke:#CF142B;stroke-width:86.6667;stroke-miterlimit:86.6667;}
	.st7{stroke:#FFFFFF;stroke-width:216.6667;stroke-miterlimit:86.6667;}
	.st8{stroke:#CF142B;stroke-width:130;stroke-miterlimit:86.6667;}
</style>
<rect y="0.8" class="st0" width="900" height="599.2"/>
<g>
	<rect id="stripe" y="0.8" class="st1" width="900" height="46.1"/>
</g>
<g>
	<rect id="stripe_1_" y="93" class="st1" width="900" height="46.1"/>
</g>
<g>
	<rect id="stripe_2_" y="185.2" class="st1" width="900" height="46.1"/>
</g>
<g>
	<rect id="stripe_3_" y="277.4" class="st1" width="900" height="46.1"/>
</g>
<g>
	<rect id="stripe_4_" y="369.5" class="st1" width="900" height="46.1"/>
</g>
<g>
	<rect id="stripe_5_" y="461.7" class="st1" width="900" height="46.1"/>
</g>
<g>
	<rect id="stripe_6_" y="553.9" class="st1" width="900" height="46.1"/>
</g>
<rect y="0.8" class="st2" width="342" height="322.6"/>
<g transform="translate(247,175) scale(650)">
	<g id="u">
		<g>
			<g id="x4">
				<g>
					<g id="s6">
						<g>
							<g id="s5">
								<g>
									<g id="star">
										<g transform="rotate(-144)">
											<polygon id="pt" class="st0" points="32.9,36.2 21.1,47.6 25.6,29.2 											"/>
										</g>
										<g transform="rotate(-72)">
											<polygon id="pt_1_" class="st0" points="27.9,38.4 16.1,27 30.6,27 											"/>
										</g>
										<g>
											<polygon id="pt_2_" class="st0" points="24.7,32.7 29.2,14.2 33.8,32.7 											"/>
										</g>
										<g transform="rotate(72)">
											<polygon id="pt_3_" class="st0" points="27.9,27 42.4,27 30.6,38.4 											"/>
										</g>
										<g transform="rotate(144)">
											<polygon id="pt_4_" class="st0" points="32.9,29.2 37.4,47.6 25.6,36.2 											"/>
										</g>
									</g>
								</g>
								<g>
									<g id="star_1_">
										<g transform="rotate(-144)">
											<polygon id="pt_5_" class="st0" points="89.6,36.2 77.8,47.6 82.3,29.2 											"/>
										</g>
										<g transform="rotate(-72)">
											<polygon id="pt_6_" class="st0" points="84.6,38.4 72.8,27 87.3,27 											"/>
										</g>
										<g>
											<polygon id="pt_7_" class="st0" points="81.4,32.7 85.9,14.2 90.5,32.7 											"/>
										</g>
										<g transform="rotate(72)">
											<polygon id="pt_8_" class="st0" points="84.6,27 99.1,27 87.3,38.4 											"/>
										</g>
										<g transform="rotate(144)">
											<polygon id="pt_9_" class="st0" points="89.6,29.2 94.1,47.6 82.3,36.2 											"/>
										</g>
									</g>
								</g>
								<g>
									<g id="star_2_">
										<g transform="rotate(-144)">
											<polygon id="pt_10_" class="st0" points="146.3,36.2 134.5,47.6 139,29.2 											"/>
										</g>
										<g transform="rotate(-72)">
											<polygon id="pt_11_" class="st0" points="141.3,38.4 129.5,27 144,27 											"/>
										</g>
										<g>
											<polygon id="pt_12_" class="st0" points="138.1,32.7 142.6,14.2 147.2,32.7 											"/>
										</g>
										<g transform="rotate(72)">
											<polygon id="pt_13_" class="st0" points="141.3,27 155.8,27 144,38.4 											"/>
										</g>
										<g transform="rotate(144)">
											<polygon id="pt_14_" class="st0" points="146.3,29.2 150.8,47.6 139,36.2 											"/>
										</g>
									</g>
								</g>
								<g>
									<g id="star_3_">
										<g transform="rotate(-144)">
											<polygon id="pt_15_" class="st0" points="203,36.2 191.2,47.6 195.7,29.2 											"/>
										</g>
										<g transform="rotate(-72)">
											<polygon id="pt_16_" class="st0" points="198,38.4 186.2,27 200.7,27 											"/>
										</g>
										<g>
											<polygon id="pt_17_" class="st0" points="194.8,32.7 199.4,14.2 203.9,32.7 											"/>
										</g>
										<g transform="rotate(72)">
											<polygon id="pt_18_" class="st0" points="198,27 212.5,27 200.7,38.4 											"/>
										</g>
										<g transform="rotate(144)">
											<polygon id="pt_19_" class="st0" points="203,29.2 207.5,47.6 195.7,36.2 											"/>
										</g>
									</g>
								</g>
								<g>
									<g id="star_4_">
										<g transform="rotate(-144)">
											<polygon id="pt_20_" class="st0" points="259.7,36.2 247.9,47.6 252.4,29.2 											"/>
										</g>
										<g transform="rotate(-72)">
											<polygon id="pt_21_" class="st0" points="254.7,38.4 242.9,27 257.4,27 											"/>
										</g>
										<g>
											<polygon id="pt_22_" class="st0" points="251.5,32.7 256,14.2 260.6,32.7 											"/>
										</g>
										<g transform="rotate(72)">
											<polygon id="pt_23_" class="st0" points="254.7,27 269.2,27 257.4,38.4 											"/>
										</g>
										<g transform="rotate(144)">
											<polygon id="pt_24_" class="st0" points="259.7,29.2 264.2,47.6 252.4,36.2 											"/>
										</g>
									</g>
								</g>
							</g>
						</g>
						<g>
							<g id="star_5_">
								<g transform="rotate(-144)">
									<polygon id="pt_25_" class="st0" points="316.4,36.2 304.6,47.6 309.1,29.2 									"/>
								</g>
								<g transform="rotate(-72)">
									<polygon id="pt_26_" class="st0" points="311.4,38.4 299.6,27 314.1,27 									"/>
								</g>
								<g>
									<polygon id="pt_27_" class="st0" points="308.2,32.7 312.8,14.2 317.3,32.7 									"/>
								</g>
								<g transform="rotate(72)">
									<polygon id="pt_28_" class="st0" points="311.4,27 325.9,27 314.1,38.4 									"/>
								</g>
								<g transform="rotate(144)">
									<polygon id="pt_29_" class="st0" points="316.4,29.2 320.9,47.6 309.1,36.2 									"/>
								</g>
							</g>
						</g>
					</g>
				</g>
				<g>
					<g id="s5_1_">
						<g>
							<g id="star_6_">
								<g transform="rotate(-144)">
									<polygon id="pt_30_" class="st0" points="61.2,68.6 49.5,80 54,61.5 									"/>
								</g>
								<g transform="rotate(-72)">
									<polygon id="pt_31_" class="st0" points="56.2,70.8 44.4,59.3 59,59.3 									"/>
								</g>
								<g>
									<polygon id="pt_32_" class="st0" points="53.1,65 57.6,46.6 62.1,65 									"/>
								</g>
								<g transform="rotate(72)">
									<polygon id="pt_33_" class="st0" points="56.2,59.3 70.8,59.3 59,70.8 									"/>
								</g>
								<g transform="rotate(144)">
									<polygon id="pt_34_" class="st0" points="61.2,61.5 65.7,80 54,68.6 									"/>
								</g>
							</g>
						</g>
						<g>
							<g id="star_7_">
								<g transform="rotate(-144)">
									<polygon id="pt_35_" class="st0" points="117.9,68.6 106.2,80 110.7,61.5 									"/>
								</g>
								<g transform="rotate(-72)">
									<polygon id="pt_36_" class="st0" points="112.9,70.8 101.1,59.3 115.7,59.3 									"/>
								</g>
								<g>
									<polygon id="pt_37_" class="st0" points="109.8,65 114.3,46.6 118.8,65 									"/>
								</g>
								<g transform="rotate(72)">
									<polygon id="pt_38_" class="st0" points="112.9,59.3 127.5,59.3 115.7,70.8 									"/>
								</g>
								<g transform="rotate(144)">
									<polygon id="pt_39_" class="st0" points="117.9,61.5 122.4,80 110.7,68.6 									"/>
								</g>
							</g>
						</g>
						<g>
							<g id="star_8_">
								<g transform="rotate(-144)">
									<polygon id="pt_40_" class="st0" points="174.6,68.6 162.9,80 167.4,61.5 									"/>
								</g>
								<g transform="rotate(-72)">
									<polygon id="pt_41_" class="st0" points="169.6,70.8 157.8,59.3 172.4,59.3 									"/>
								</g>
								<g>
									<polygon id="pt_42_" class="st0" points="166.5,65 171,46.6 175.5,65 									"/>
								</g>
								<g transform="rotate(72)">
									<polygon id="pt_43_" class="st0" points="169.6,59.3 184.2,59.3 172.4,70.8 									"/>
								</g>
								<g transform="rotate(144)">
									<polygon id="pt_44_" class="st0" points="174.6,61.5 179.1,80 167.4,68.6 									"/>
								</g>
							</g>
						</g>
						<g>
							<g id="star_9_">
								<g transform="rotate(-144)">
									<polygon id="pt_45_" class="st0" points="231.3,68.6 219.6,80 224.1,61.5 									"/>
								</g>
								<g transform="rotate(-72)">
									<polygon id="pt_46_" class="st0" points="226.3,70.8 214.5,59.3 229.1,59.3 									"/>
								</g>
								<g>
									<polygon id="pt_47_" class="st0" points="223.2,65 227.7,46.6 232.2,65 									"/>
								</g>
								<g transform="rotate(72)">
									<polygon id="pt_48_" class="st0" points="226.3,59.3 240.9,59.3 229.1,70.8 									"/>
								</g>
								<g transform="rotate(144)">
									<polygon id="pt_49_" class="st0" points="231.3,61.5 235.8,80 224.1,68.6 									"/>
								</g>
							</g>
						</g>
						<g>
							<g id="star_10_">
								<g transform="rotate(-144)">
									<polygon id="pt_50_" class="st0" points="288,68.6 276.3,80 280.8,61.5 									"/>
								</g>
								<g transform="rotate(-72)">
									<polygon id="pt_51_" class="st0" points="283,70.8 271.2,59.3 285.8,59.3 									"/>
								</g>
								<g>
									<polygon id="pt_52_" class="st0" points="279.9,65 284.4,46.6 288.9,65 									"/>
								</g>
								<g transform="rotate(72)">
									<polygon id="pt_53_" class="st0" points="283,59.3 297.6,59.3 285.8,70.8 									"/>
								</g>
								<g transform="rotate(144)">
									<polygon id="pt_54_" class="st0" points="288,61.5 292.5,80 280.8,68.6 									"/>
								</g>
							</g>
						</g>
					</g>
				</g>
				<g>
					<g id="s6_1_">
						<g>
							<g id="s5_2_">
								<g>
									<g id="star_11_">
										<g transform="rotate(-144)">
											<polygon id="pt_55_" class="st0" points="32.9,100.9 21.1,112.3 25.6,93.9 											"/>
										</g>
										<g transform="rotate(-72)">
											<polygon id="pt_56_" class="st0" points="27.9,103.1 16.1,91.7 30.6,91.7 											"/>
										</g>
										<g>
											<polygon id="pt_57_" class="st0" points="24.7,97.4 29.2,79 33.8,97.4 											"/>
										</g>
										<g transform="rotate(72)">
											<polygon id="pt_58_" class="st0" points="27.9,91.7 42.4,91.7 30.6,103.1 											"/>
										</g>
										<g transform="rotate(144)">
											<polygon id="pt_59_" class="st0" points="32.9,93.9 37.4,112.3 25.6,100.9 											"/>
										</g>
									</g>
								</g>
								<g>
									<g id="star_12_">
										<g transform="rotate(-144)">
											<polygon id="pt_60_" class="st0" points="89.6,100.9 77.8,112.3 82.3,93.9 											"/>
										</g>
										<g transform="rotate(-72)">
											<polygon id="pt_61_" class="st0" points="84.6,103.1 72.8,91.7 87.3,91.7 											"/>
										</g>
										<g>
											<polygon id="pt_62_" class="st0" points="81.4,97.4 85.9,79 90.5,97.4 											"/>
										</g>
										<g transform="rotate(72)">
											<polygon id="pt_63_" class="st0" points="84.6,91.7 99.1,91.7 87.3,103.1 											"/>
										</g>
										<g transform="rotate(144)">
											<polygon id="pt_64_" class="st0" points="89.6,93.9 94.1,112.3 82.3,100.9 											"/>
										</g>
									</g>
								</g>
								<g>
									<g id="star_13_">
										<g transform="rotate(-144)">
											<polygon id="pt_65_" class="st0" points="146.3,100.9 134.5,112.3 139,93.9 											"/>
										</g>
										<g transform="rotate(-72)">
											<polygon id="pt_66_" class="st0" points="141.3,103.1 129.5,91.7 144,91.7 											"/>
										</g>
										<g>
											<polygon id="pt_67_" class="st0" points="138.1,97.4 142.6,79 147.2,97.4 											"/>
										</g>
										<g transform="rotate(72)">
											<polygon id="pt_68_" class="st0" points="141.3,91.7 155.8,91.7 144,103.1 											"/>
										</g>
										<g transform="rotate(144)">
											<polygon id="pt_69_" class="st0" points="146.3,93.9 150.8,112.3 139,100.9 											"/>
										</g>
									</g>
								</g>
								<g>
									<g id="star_14_">
										<g transform="rotate(-144)">
											<polygon id="pt_70_" class="st0" points="203,100.9 191.2,112.3 195.7,93.9 											"/>
										</g>
										<g transform="rotate(-72)">
											<polygon id="pt_71_" class="st0" points="198,103.1 186.2,91.7 200.7,91.7 											"/>
										</g>
										<g>
											<polygon id="pt_72_" class="st0" points="194.8,97.4 199.4,79 203.9,97.4 											"/>
										</g>
										<g transform="rotate(72)">
											<polygon id="pt_73_" class="st0" points="198,91.7 212.5,91.7 200.7,103.1 											"/>
										</g>
										<g transform="rotate(144)">
											<polygon id="pt_74_" class="st0" points="203,93.9 207.5,112.3 195.7,100.9 											"/>
										</g>
									</g>
								</g>
								<g>
									<g id="star_15_">
										<g transform="rotate(-144)">
											<polygon id="pt_75_" class="st0" points="259.7,100.9 247.9,112.3 252.4,93.9 											"/>
										</g>
										<g transform="rotate(-72)">
											<polygon id="pt_76_" class="st0" points="254.7,103.1 242.9,91.7 257.4,91.7 											"/>
										</g>
										<g>
											<polygon id="pt_77_" class="st0" points="251.5,97.4 256,79 260.6,97.4 											"/>
										</g>
										<g transform="rotate(72)">
											<polygon id="pt_78_" class="st0" points="254.7,91.7 269.2,91.7 257.4,103.1 											"/>
										</g>
										<g transform="rotate(144)">
											<polygon id="pt_79_" class="st0" points="259.7,93.9 264.2,112.3 252.4,100.9 											"/>
										</g>
									</g>
								</g>
							</g>
						</g>
						<g>
							<g id="star_16_">
								<g transform="rotate(-144)">
									<polygon id="pt_80_" class="st0" points="316.4,100.9 304.6,112.3 309.1,93.9 									"/>
								</g>
								<g transform="rotate(-72)">
									<polygon id="pt_81_" class="st0" points="311.4,103.1 299.6,91.7 314.1,91.7 									"/>
								</g>
								<g>
									<polygon id="pt_82_" class="st0" points="308.2,97.4 312.8,79 317.3,97.4 									"/>
								</g>
								<g transform="rotate(72)">
									<polygon id="pt_83_" class="st0" points="311.4,91.7 325.9,91.7 314.1,103.1 									"/>
								</g>
								<g transform="rotate(144)">
									<polygon id="pt_84_" class="st0" points="316.4,93.9 320.9,112.3 309.1,100.9 									"/>
								</g>
							</g>
						</g>
					</g>
				</g>
				<g>
					<g id="s5_3_">
						<g>
							<g id="star_17_">
								<g transform="rotate(-144)">
									<polygon id="pt_85_" class="st0" points="61.2,133.3 49.5,144.7 54,126.2 									"/>
								</g>
								<g transform="rotate(-72)">
									<polygon id="pt_86_" class="st0" points="56.2,135.5 44.4,124.1 59,124.1 									"/>
								</g>
								<g>
									<polygon id="pt_87_" class="st0" points="53.1,129.8 57.6,111.3 62.1,129.8 									"/>
								</g>
								<g transform="rotate(72)">
									<polygon id="pt_88_" class="st0" points="56.2,124.1 70.8,124.1 59,135.5 									"/>
								</g>
								<g transform="rotate(144)">
									<polygon id="pt_89_" class="st0" points="61.2,126.2 65.7,144.7 54,133.3 									"/>
								</g>
							</g>
						</g>
						<g>
							<g id="star_18_">
								<g transform="rotate(-144)">
									<polygon id="pt_90_" class="st0" points="117.9,133.3 106.2,144.7 110.7,126.2 									"/>
								</g>
								<g transform="rotate(-72)">
									<polygon id="pt_91_" class="st0" points="112.9,135.5 101.1,124.1 115.7,124.1 									"/>
								</g>
								<g>
									<polygon id="pt_92_" class="st0" points="109.8,129.8 114.3,111.3 118.8,129.8 									"/>
								</g>
								<g transform="rotate(72)">
									<polygon id="pt_93_" class="st0" points="112.9,124.1 127.5,124.1 115.7,135.5 									"/>
								</g>
								<g transform="rotate(144)">
									<polygon id="pt_94_" class="st0" points="117.9,126.2 122.4,144.7 110.7,133.3 									"/>
								</g>
							</g>
						</g>
						<g>
							<g id="star_19_">
								<g transform="rotate(-144)">
									<polygon id="pt_95_" class="st0" points="174.6,133.3 162.9,144.7 167.4,126.2 									"/>
								</g>
								<g transform="rotate(-72)">
									<polygon id="pt_96_" class="st0" points="169.6,135.5 157.8,124.1 172.4,124.1 									"/>
								</g>
								<g>
									<polygon id="pt_97_" class="st0" points="166.5,129.8 171,111.3 175.5,129.8 									"/>
								</g>
								<g transform="rotate(72)">
									<polygon id="pt_98_" class="st0" points="169.6,124.1 184.2,124.1 172.4,135.5 									"/>
								</g>
								<g transform="rotate(144)">
									<polygon id="pt_99_" class="st0" points="174.6,126.2 179.1,144.7 167.4,133.3 									"/>
								</g>
							</g>
						</g>
						<g>
							<g id="star_20_">
								<g transform="rotate(-144)">
									<polygon id="pt_100_" class="st0" points="231.3,133.3 219.6,144.7 224.1,126.2 									"/>
								</g>
								<g transform="rotate(-72)">
									<polygon id="pt_101_" class="st0" points="226.3,135.5 214.5,124.1 229.1,124.1 									"/>
								</g>
								<g>
									<polygon id="pt_102_" class="st0" points="223.2,129.8 227.7,111.3 232.2,129.8 									"/>
								</g>
								<g transform="rotate(72)">
									<polygon id="pt_103_" class="st0" points="226.3,124.1 240.9,124.1 229.1,135.5 									"/>
								</g>
								<g transform="rotate(144)">
									<polygon id="pt_104_" class="st0" points="231.3,126.2 235.8,144.7 224.1,133.3 									"/>
								</g>
							</g>
						</g>
						<g>
							<g id="star_21_">
								<g transform="rotate(-144)">
									<polygon id="pt_105_" class="st0" points="288,133.3 276.3,144.7 280.8,126.2 									"/>
								</g>
								<g transform="rotate(-72)">
									<polygon id="pt_106_" class="st0" points="283,135.5 271.2,124.1 285.8,124.1 									"/>
								</g>
								<g>
									<polygon id="pt_107_" class="st0" points="279.9,129.8 284.4,111.3 288.9,129.8 									"/>
								</g>
								<g transform="rotate(72)">
									<polygon id="pt_108_" class="st0" points="283,124.1 297.6,124.1 285.8,135.5 									"/>
								</g>
								<g transform="rotate(144)">
									<polygon id="pt_109_" class="st0" points="288,126.2 292.5,144.7 280.8,133.3 									"/>
								</g>
							</g>
						</g>
					</g>
				</g>
			</g>
		</g>
		<g>
			<g id="x4_1_">
				<g>
					<g id="s6_2_">
						<g>
							<g id="s5_4_">
								<g>
									<g id="star_22_">
										<g transform="rotate(-144)">
											<polygon id="pt_110_" class="st0" points="32.9,165.6 21.1,177.1 25.6,158.6 											"/>
										</g>
										<g transform="rotate(-72)">
											<polygon id="pt_111_" class="st0" points="27.9,167.8 16.1,156.4 30.6,156.4 											"/>
										</g>
										<g>
											<polygon id="pt_112_" class="st0" points="24.7,162.1 29.2,143.7 33.8,162.1 											"/>
										</g>
										<g transform="rotate(72)">
											<polygon id="pt_113_" class="st0" points="27.9,156.4 42.4,156.4 30.6,167.8 											"/>
										</g>
										<g transform="rotate(144)">
											<polygon id="pt_114_" class="st0" points="32.9,158.6 37.4,177.1 25.6,165.6 											"/>
										</g>
									</g>
								</g>
								<g>
									<g id="star_23_">
										<g transform="rotate(-144)">
											<polygon id="pt_115_" class="st0" points="89.6,165.6 77.8,177.1 82.3,158.6 											"/>
										</g>
										<g transform="rotate(-72)">
											<polygon id="pt_116_" class="st0" points="84.6,167.8 72.8,156.4 87.3,156.4 											"/>
										</g>
										<g>
											<polygon id="pt_117_" class="st0" points="81.4,162.1 85.9,143.7 90.5,162.1 											"/>
										</g>
										<g transform="rotate(72)">
											<polygon id="pt_118_" class="st0" points="84.6,156.4 99.1,156.4 87.3,167.8 											"/>
										</g>
										<g transform="rotate(144)">
											<polygon id="pt_119_" class="st0" points="89.6,158.6 94.1,177.1 82.3,165.6 											"/>
										</g>
									</g>
								</g>
								<g>
									<g id="star_24_">
										<g transform="rotate(-144)">
											<polygon id="pt_120_" class="st0" points="146.3,165.6 134.5,177.1 139,158.6 											"/>
										</g>
										<g transform="rotate(-72)">
											<polygon id="pt_121_" class="st0" points="141.3,167.8 129.5,156.4 144,156.4 											"/>
										</g>
										<g>
											<polygon id="pt_122_" class="st0" points="138.1,162.1 142.6,143.7 147.2,162.1 											"/>
										</g>
										<g transform="rotate(72)">
											<polygon id="pt_123_" class="st0" points="141.3,156.4 155.8,156.4 144,167.8 											"/>
										</g>
										<g transform="rotate(144)">
											<polygon id="pt_124_" class="st0" points="146.3,158.6 150.8,177.1 139,165.6 											"/>
										</g>
									</g>
								</g>
								<g>
									<g id="star_25_">
										<g transform="rotate(-144)">
											<polygon id="pt_125_" class="st0" points="203,165.6 191.2,177.1 195.7,158.6 											"/>
										</g>
										<g transform="rotate(-72)">
											<polygon id="pt_126_" class="st0" points="198,167.8 186.2,156.4 200.7,156.4 											"/>
										</g>
										<g>
											<polygon id="pt_127_" class="st0" points="194.8,162.1 199.4,143.7 203.9,162.1 											"/>
										</g>
										<g transform="rotate(72)">
											<polygon id="pt_128_" class="st0" points="198,156.4 212.5,156.4 200.7,167.8 											"/>
										</g>
										<g transform="rotate(144)">
											<polygon id="pt_129_" class="st0" points="203,158.6 207.5,177.1 195.7,165.6 											"/>
										</g>
									</g>
								</g>
								<g>
									<g id="star_26_">
										<g transform="rotate(-144)">
											<polygon id="pt_130_" class="st0" points="259.7,165.6 247.9,177.1 252.4,158.6 											"/>
										</g>
										<g transform="rotate(-72)">
											<polygon id="pt_131_" class="st0" points="254.7,167.8 242.9,156.4 257.4,156.4 											"/>
										</g>
										<g>
											<polygon id="pt_132_" class="st0" points="251.5,162.1 256,143.7 260.6,162.1 											"/>
										</g>
										<g transform="rotate(72)">
											<polygon id="pt_133_" class="st0" points="254.7,156.4 269.2,156.4 257.4,167.8 											"/>
										</g>
										<g transform="rotate(144)">
											<polygon id="pt_134_" class="st0" points="259.7,158.6 264.2,177.1 252.4,165.6 											"/>
										</g>
									</g>
								</g>
							</g>
						</g>
						<g>
							<g id="star_27_">
								<g transform="rotate(-144)">
									<polygon id="pt_135_" class="st0" points="316.4,165.6 304.6,177.1 309.1,158.6 									"/>
								</g>
								<g transform="rotate(-72)">
									<polygon id="pt_136_" class="st0" points="311.4,167.8 299.6,156.4 314.1,156.4 									"/>
								</g>
								<g>
									<polygon id="pt_137_" class="st0" points="308.2,162.1 312.8,143.7 317.3,162.1 									"/>
								</g>
								<g transform="rotate(72)">
									<polygon id="pt_138_" class="st0" points="311.4,156.4 325.9,156.4 314.1,167.8 									"/>
								</g>
								<g transform="rotate(144)">
									<polygon id="pt_139_" class="st0" points="316.4,158.6 320.9,177.1 309.1,165.6 									"/>
								</g>
							</g>
						</g>
					</g>
				</g>
				<g>
					<g id="s5_5_">
						<g>
							<g id="star_28_">
								<g transform="rotate(-144)">
									<polygon id="pt_140_" class="st0" points="61.2,198 49.5,209.4 54,191 									"/>
								</g>
								<g transform="rotate(-72)">
									<polygon id="pt_141_" class="st0" points="56.2,200.2 44.4,188.8 59,188.8 									"/>
								</g>
								<g>
									<polygon id="pt_142_" class="st0" points="53.1,194.5 57.6,176 62.1,194.5 									"/>
								</g>
								<g transform="rotate(72)">
									<polygon id="pt_143_" class="st0" points="56.2,188.8 70.8,188.8 59,200.2 									"/>
								</g>
								<g transform="rotate(144)">
									<polygon id="pt_144_" class="st0" points="61.2,191 65.7,209.4 54,198 									"/>
								</g>
							</g>
						</g>
						<g>
							<g id="star_29_">
								<g transform="rotate(-144)">
									<polygon id="pt_145_" class="st0" points="117.9,198 106.2,209.4 110.7,191 									"/>
								</g>
								<g transform="rotate(-72)">
									<polygon id="pt_146_" class="st0" points="112.9,200.2 101.1,188.8 115.7,188.8 									"/>
								</g>
								<g>
									<polygon id="pt_147_" class="st0" points="109.8,194.5 114.3,176 118.8,194.5 									"/>
								</g>
								<g transform="rotate(72)">
									<polygon id="pt_148_" class="st0" points="112.9,188.8 127.5,188.8 115.7,200.2 									"/>
								</g>
								<g transform="rotate(144)">
									<polygon id="pt_149_" class="st0" points="117.9,191 122.4,209.4 110.7,198 									"/>
								</g>
							</g>
						</g>
						<g>
							<g id="star_30_">
								<g transform="rotate(-144)">
									<polygon id="pt_150_" class="st0" points="174.6,198 162.9,209.4 167.4,191 									"/>
								</g>
								<g transform="rotate(-72)">
									<polygon id="pt_151_" class="st0" points="169.6,200.2 157.8,188.8 172.4,188.8 									"/>
								</g>
								<g>
									<polygon id="pt_152_" class="st0" points="166.5,194.5 171,176 175.5,194.5 									"/>
								</g>
								<g transform="rotate(72)">
									<polygon id="pt_153_" class="st0" points="169.6,188.8 184.2,188.8 172.4,200.2 									"/>
								</g>
								<g transform="rotate(144)">
									<polygon id="pt_154_" class="st0" points="174.6,191 179.1,209.4 167.4,198 									"/>
								</g>
							</g>
						</g>
						<g>
							<g id="star_31_">
								<g transform="rotate(-144)">
									<polygon id="pt_155_" class="st0" points="231.3,198 219.6,209.4 224.1,191 									"/>
								</g>
								<g transform="rotate(-72)">
									<polygon id="pt_156_" class="st0" points="226.3,200.2 214.5,188.8 229.1,188.8 									"/>
								</g>
								<g>
									<polygon id="pt_157_" class="st0" points="223.2,194.5 227.7,176 232.2,194.5 									"/>
								</g>
								<g transform="rotate(72)">
									<polygon id="pt_158_" class="st0" points="226.3,188.8 240.9,188.8 229.1,200.2 									"/>
								</g>
								<g transform="rotate(144)">
									<polygon id="pt_159_" class="st0" points="231.3,191 235.8,209.4 224.1,198 									"/>
								</g>
							</g>
						</g>
						<g>
							<g id="star_32_">
								<g transform="rotate(-144)">
									<polygon id="pt_160_" class="st0" points="288,198 276.3,209.4 280.8,191 									"/>
								</g>
								<g transform="rotate(-72)">
									<polygon id="pt_161_" class="st0" points="283,200.2 271.2,188.8 285.8,188.8 									"/>
								</g>
								<g>
									<polygon id="pt_162_" class="st0" points="279.9,194.5 284.4,176 288.9,194.5 									"/>
								</g>
								<g transform="rotate(72)">
									<polygon id="pt_163_" class="st0" points="283,188.8 297.6,188.8 285.8,200.2 									"/>
								</g>
								<g transform="rotate(144)">
									<polygon id="pt_164_" class="st0" points="288,191 292.5,209.4 280.8,198 									"/>
								</g>
							</g>
						</g>
					</g>
				</g>
				<g>
					<g id="s6_3_">
						<g>
							<g id="s5_6_">
								<g>
									<g id="star_33_">
										<g transform="rotate(-144)">
											<polygon id="pt_165_" class="st0" points="32.9,230.4 21.1,241.8 25.6,223.3 											"/>
										</g>
										<g transform="rotate(-72)">
											<polygon id="pt_166_" class="st0" points="27.9,232.5 16.1,221.1 30.6,221.1 											"/>
										</g>
										<g>
											<polygon id="pt_167_" class="st0" points="24.7,226.8 29.2,208.4 33.8,226.8 											"/>
										</g>
										<g transform="rotate(72)">
											<polygon id="pt_168_" class="st0" points="27.9,221.1 42.4,221.1 30.6,232.5 											"/>
										</g>
										<g transform="rotate(144)">
											<polygon id="pt_169_" class="st0" points="32.9,223.3 37.4,241.8 25.6,230.4 											"/>
										</g>
									</g>
								</g>
								<g>
									<g id="star_34_">
										<g transform="rotate(-144)">
											<polygon id="pt_170_" class="st0" points="89.6,230.4 77.8,241.8 82.3,223.3 											"/>
										</g>
										<g transform="rotate(-72)">
											<polygon id="pt_171_" class="st0" points="84.6,232.5 72.8,221.1 87.3,221.1 											"/>
										</g>
										<g>
											<polygon id="pt_172_" class="st0" points="81.4,226.8 85.9,208.4 90.5,226.8 											"/>
										</g>
										<g transform="rotate(72)">
											<polygon id="pt_173_" class="st0" points="84.6,221.1 99.1,221.1 87.3,232.5 											"/>
										</g>
										<g transform="rotate(144)">
											<polygon id="pt_174_" class="st0" points="89.6,223.3 94.1,241.8 82.3,230.4 											"/>
										</g>
									</g>
								</g>
								<g>
									<g id="star_35_">
										<g transform="rotate(-144)">
											<polygon id="pt_175_" class="st0" points="146.3,230.4 134.5,241.8 139,223.3 											"/>
										</g>
										<g transform="rotate(-72)">
											<polygon id="pt_176_" class="st0" points="141.3,232.5 129.5,221.1 144,221.1 											"/>
										</g>
										<g>
											<polygon id="pt_177_" class="st0" points="138.1,226.8 142.6,208.4 147.2,226.8 											"/>
										</g>
										<g transform="rotate(72)">
											<polygon id="pt_178_" class="st0" points="141.3,221.1 155.8,221.1 144,232.5 											"/>
										</g>
										<g transform="rotate(144)">
											<polygon id="pt_179_" class="st0" points="146.3,223.3 150.8,241.8 139,230.4 											"/>
										</g>
									</g>
								</g>
								<g>
									<g id="star_36_">
										<g transform="rotate(-144)">
											<polygon id="pt_180_" class="st0" points="203,230.4 191.2,241.8 195.7,223.3 											"/>
										</g>
										<g transform="rotate(-72)">
											<polygon id="pt_181_" class="st0" points="198,232.5 186.2,221.1 200.7,221.1 											"/>
										</g>
										<g>
											<polygon id="pt_182_" class="st0" points="194.8,226.8 199.4,208.4 203.9,226.8 											"/>
										</g>
										<g transform="rotate(72)">
											<polygon id="pt_183_" class="st0" points="198,221.1 212.5,221.1 200.7,232.5 											"/>
										</g>
										<g transform="rotate(144)">
											<polygon id="pt_184_" class="st0" points="203,223.3 207.5,241.8 195.7,230.4 											"/>
										</g>
									</g>
								</g>
								<g>
									<g id="star_37_">
										<g transform="rotate(-144)">
											<polygon id="pt_185_" class="st0" points="259.7,230.4 247.9,241.8 252.4,223.3 											"/>
										</g>
										<g transform="rotate(-72)">
											<polygon id="pt_186_" class="st0" points="254.7,232.5 242.9,221.1 257.4,221.1 											"/>
										</g>
										<g>
											<polygon id="pt_187_" class="st0" points="251.5,226.8 256,208.4 260.6,226.8 											"/>
										</g>
										<g transform="rotate(72)">
											<polygon id="pt_188_" class="st0" points="254.7,221.1 269.2,221.1 257.4,232.5 											"/>
										</g>
										<g transform="rotate(144)">
											<polygon id="pt_189_" class="st0" points="259.7,223.3 264.2,241.8 252.4,230.4 											"/>
										</g>
									</g>
								</g>
							</g>
						</g>
						<g>
							<g id="star_38_">
								<g transform="rotate(-144)">
									<polygon id="pt_190_" class="st0" points="316.4,230.4 304.6,241.8 309.1,223.3 									"/>
								</g>
								<g transform="rotate(-72)">
									<polygon id="pt_191_" class="st0" points="311.4,232.5 299.6,221.1 314.1,221.1 									"/>
								</g>
								<g>
									<polygon id="pt_192_" class="st0" points="308.2,226.8 312.8,208.4 317.3,226.8 									"/>
								</g>
								<g transform="rotate(72)">
									<polygon id="pt_193_" class="st0" points="311.4,221.1 325.9,221.1 314.1,232.5 									"/>
								</g>
								<g transform="rotate(144)">
									<polygon id="pt_194_" class="st0" points="316.4,223.3 320.9,241.8 309.1,230.4 									"/>
								</g>
							</g>
						</g>
					</g>
				</g>
				<g>
					<g id="s5_7_">
						<g>
							<g id="star_39_">
								<g transform="rotate(-144)">
									<polygon id="pt_195_" class="st0" points="61.2,262.7 49.5,274.1 54,255.7 									"/>
								</g>
								<g transform="rotate(-72)">
									<polygon id="pt_196_" class="st0" points="56.2,264.9 44.4,253.5 59,253.5 									"/>
								</g>
								<g>
									<polygon id="pt_197_" class="st0" points="53.1,259.2 57.6,240.7 62.1,259.2 									"/>
								</g>
								<g transform="rotate(72)">
									<polygon id="pt_198_" class="st0" points="56.2,253.5 70.8,253.5 59,264.9 									"/>
								</g>
								<g transform="rotate(144)">
									<polygon id="pt_199_" class="st0" points="61.2,255.7 65.7,274.1 54,262.7 									"/>
								</g>
							</g>
						</g>
						<g>
							<g id="star_40_">
								<g transform="rotate(-144)">
									<polygon id="pt_200_" class="st0" points="117.9,262.7 106.2,274.1 110.7,255.7 									"/>
								</g>
								<g transform="rotate(-72)">
									<polygon id="pt_201_" class="st0" points="112.9,264.9 101.1,253.5 115.7,253.5 									"/>
								</g>
								<g>
									<polygon id="pt_202_" class="st0" points="109.8,259.2 114.3,240.7 118.8,259.2 									"/>
								</g>
								<g transform="rotate(72)">
									<polygon id="pt_203_" class="st0" points="112.9,253.5 127.5,253.5 115.7,264.9 									"/>
								</g>
								<g transform="rotate(144)">
									<polygon id="pt_204_" class="st0" points="117.9,255.7 122.4,274.1 110.7,262.7 									"/>
								</g>
							</g>
						</g>
						<g>
							<g id="star_41_">
								<g transform="rotate(-144)">
									<polygon id="pt_205_" class="st0" points="174.6,262.7 162.9,274.1 167.4,255.7 									"/>
								</g>
								<g transform="rotate(-72)">
									<polygon id="pt_206_" class="st0" points="169.6,264.9 157.8,253.5 172.4,253.5 									"/>
								</g>
								<g>
									<polygon id="pt_207_" class="st0" points="166.5,259.2 171,240.7 175.5,259.2 									"/>
								</g>
								<g transform="rotate(72)">
									<polygon id="pt_208_" class="st0" points="169.6,253.5 184.2,253.5 172.4,264.9 									"/>
								</g>
								<g transform="rotate(144)">
									<polygon id="pt_209_" class="st0" points="174.6,255.7 179.1,274.1 167.4,262.7 									"/>
								</g>
							</g>
						</g>
						<g>
							<g id="star_42_">
								<g transform="rotate(-144)">
									<polygon id="pt_210_" class="st0" points="231.3,262.7 219.6,274.1 224.1,255.7 									"/>
								</g>
								<g transform="rotate(-72)">
									<polygon id="pt_211_" class="st0" points="226.3,264.9 214.5,253.5 229.1,253.5 									"/>
								</g>
								<g>
									<polygon id="pt_212_" class="st0" points="223.2,259.2 227.7,240.7 232.2,259.2 									"/>
								</g>
								<g transform="rotate(72)">
									<polygon id="pt_213_" class="st0" points="226.3,253.5 240.9,253.5 229.1,264.9 									"/>
								</g>
								<g transform="rotate(144)">
									<polygon id="pt_214_" class="st0" points="231.3,255.7 235.8,274.1 224.1,262.7 									"/>
								</g>
							</g>
						</g>
						<g>
							<g id="star_43_">
								<g transform="rotate(-144)">
									<polygon id="pt_215_" class="st0" points="288,262.7 276.3,274.1 280.8,255.7 									"/>
								</g>
								<g transform="rotate(-72)">
									<polygon id="pt_216_" class="st0" points="283,264.9 271.2,253.5 285.8,253.5 									"/>
								</g>
								<g>
									<polygon id="pt_217_" class="st0" points="279.9,259.2 284.4,240.7 288.9,259.2 									"/>
								</g>
								<g transform="rotate(72)">
									<polygon id="pt_218_" class="st0" points="283,253.5 297.6,253.5 285.8,264.9 									"/>
								</g>
								<g transform="rotate(144)">
									<polygon id="pt_219_" class="st0" points="288,255.7 292.5,274.1 280.8,262.7 									"/>
								</g>
							</g>
						</g>
					</g>
				</g>
			</g>
		</g>
		<g>
			<g id="s6_4_">
				<g>
					<g id="s5_8_">
						<g>
							<g id="star_44_">
								<g transform="rotate(-144)">
									<polygon id="pt_220_" class="st0" points="32.9,295.1 21.1,306.5 25.6,288 									"/>
								</g>
								<g transform="rotate(-72)">
									<polygon id="pt_221_" class="st0" points="27.9,297.3 16.1,285.8 30.6,285.8 									"/>
								</g>
								<g>
									<polygon id="pt_222_" class="st0" points="24.7,291.5 29.2,273.1 33.8,291.5 									"/>
								</g>
								<g transform="rotate(72)">
									<polygon id="pt_223_" class="st0" points="27.9,285.8 42.4,285.8 30.6,297.3 									"/>
								</g>
								<g transform="rotate(144)">
									<polygon id="pt_224_" class="st0" points="32.9,288 37.4,306.5 25.6,295.1 									"/>
								</g>
							</g>
						</g>
						<g>
							<g id="star_45_">
								<g transform="rotate(-144)">
									<polygon id="pt_225_" class="st0" points="89.6,295.1 77.8,306.5 82.3,288 									"/>
								</g>
								<g transform="rotate(-72)">
									<polygon id="pt_226_" class="st0" points="84.6,297.3 72.8,285.8 87.3,285.8 									"/>
								</g>
								<g>
									<polygon id="pt_227_" class="st0" points="81.4,291.5 85.9,273.1 90.5,291.5 									"/>
								</g>
								<g transform="rotate(72)">
									<polygon id="pt_228_" class="st0" points="84.6,285.8 99.1,285.8 87.3,297.3 									"/>
								</g>
								<g transform="rotate(144)">
									<polygon id="pt_229_" class="st0" points="89.6,288 94.1,306.5 82.3,295.1 									"/>
								</g>
							</g>
						</g>
						<g>
							<g id="star_46_">
								<g transform="rotate(-144)">
									<polygon id="pt_230_" class="st0" points="146.3,295.1 134.5,306.5 139,288 									"/>
								</g>
								<g transform="rotate(-72)">
									<polygon id="pt_231_" class="st0" points="141.3,297.3 129.5,285.8 144,285.8 									"/>
								</g>
								<g>
									<polygon id="pt_232_" class="st0" points="138.1,291.5 142.6,273.1 147.2,291.5 									"/>
								</g>
								<g transform="rotate(72)">
									<polygon id="pt_233_" class="st0" points="141.3,285.8 155.8,285.8 144,297.3 									"/>
								</g>
								<g transform="rotate(144)">
									<polygon id="pt_234_" class="st0" points="146.3,288 150.8,306.5 139,295.1 									"/>
								</g>
							</g>
						</g>
						<g>
							<g id="star_47_">
								<g transform="rotate(-144)">
									<polygon id="pt_235_" class="st0" points="203,295.1 191.2,306.5 195.7,288 									"/>
								</g>
								<g transform="rotate(-72)">
									<polygon id="pt_236_" class="st0" points="198,297.3 186.2,285.8 200.7,285.8 									"/>
								</g>
								<g>
									<polygon id="pt_237_" class="st0" points="194.8,291.5 199.4,273.1 203.9,291.5 									"/>
								</g>
								<g transform="rotate(72)">
									<polygon id="pt_238_" class="st0" points="198,285.8 212.5,285.8 200.7,297.3 									"/>
								</g>
								<g transform="rotate(144)">
									<polygon id="pt_239_" class="st0" points="203,288 207.5,306.5 195.7,295.1 									"/>
								</g>
							</g>
						</g>
						<g>
							<g id="star_48_">
								<g transform="rotate(-144)">
									<polygon id="pt_240_" class="st0" points="259.7,295.1 247.9,306.5 252.4,288 									"/>
								</g>
								<g transform="rotate(-72)">
									<polygon id="pt_241_" class="st0" points="254.7,297.3 242.9,285.8 257.4,285.8 									"/>
								</g>
								<g>
									<polygon id="pt_242_" class="st0" points="251.5,291.5 256,273.1 260.6,291.5 									"/>
								</g>
								<g transform="rotate(72)">
									<polygon id="pt_243_" class="st0" points="254.7,285.8 269.2,285.8 257.4,297.3 									"/>
								</g>
								<g transform="rotate(144)">
									<polygon id="pt_244_" class="st0" points="259.7,288 264.2,306.5 252.4,295.1 									"/>
								</g>
							</g>
						</g>
					</g>
				</g>
				<g>
					<g id="star_49_">
						<g transform="rotate(-144)">
							<polygon id="pt_245_" class="st0" points="316.4,295.1 304.6,306.5 309.1,288 							"/>
						</g>
						<g transform="rotate(-72)">
							<polygon id="pt_246_" class="st0" points="311.4,297.3 299.6,285.8 314.1,285.8 							"/>
						</g>
						<g>
							<polygon id="pt_247_" class="st0" points="308.2,291.5 312.8,273.1 317.3,291.5 							"/>
						</g>
						<g transform="rotate(72)">
							<polygon id="pt_248_" class="st0" points="311.4,285.8 325.9,285.8 314.1,297.3 							"/>
						</g>
						<g transform="rotate(144)">
							<polygon id="pt_249_" class="st0" points="316.4,288 320.9,306.5 309.1,295.1 							"/>
						</g>
					</g>
				</g>
			</g>
		</g>
	</g>
</g>
<g>
	<defs>
		<polygon id="SVGID_1_" points="0,600 900,600 900,0.8 		"/>
	</defs>
	<clipPath id="SVGID_2_">
		<use xlink:href="#SVGID_1_"  style="overflow:visible;"/>
	</clipPath>
	<g class="st3">
		<path class="st4" d="M0,0.8V600h900V0.8H0z"/>
		<path class="st5" d="M0,0.8L900,600 M900,0.8L0,600"/>
		<g>
			<defs>
				<polygon id="SVGID_3_" points="450,300.4 900,600 900,300.4 0,300.4 0,600 450,600 				"/>
			</defs>
			<clipPath id="SVGID_4_">
				<use xlink:href="#SVGID_3_"  style="overflow:visible;"/>
			</clipPath>
			<path class="st6" d="M0,600l450-299.6L900,600"/>
		</g>
		<path class="st7" d="M450,0.8V600 M0,300.4h900"/>
		<path class="st8" d="M450,0.8V600 M0,300.4h900"/>
	</g>
</g>
</svg>
