<?xml version="1.0" standalone="no"?>
<!DOCTYPE svg PUBLIC "-//W3C//DTD SVG 20010904//EN"
 "http://www.w3.org/TR/2001/REC-SVG-20010904/DTD/svg10.dtd">
<svg version="1.0" xmlns="http://www.w3.org/2000/svg"
 width="260.000000pt" height="260.000000pt" viewBox="0 0 260.000000 260.000000"
 preserveAspectRatio="xMidYMid meet">
<metadata>
Created by potrace 1.14, written by Peter Selinger 2001-2017
</metadata>
<g transform="translate(0.000000,260.000000) scale(0.100000,-0.100000)"
fill="#000000" stroke="none">
<path d="M1230 2577 c-25 -13 -248 -141 -495 -284 -248 -142 -468 -270 -491
-282 -22 -13 -52 -40 -65 -61 l-25 -38 1 -614 c1 -486 4 -619 14 -640 11 -22
89 -88 104 -88 2 0 71 -39 153 -86 82 -48 165 -96 184 -106 19 -11 170 -99
335 -194 166 -96 315 -177 332 -180 18 -3 46 -2 63 4 16 6 211 115 433 243
636 366 635 366 654 402 17 29 18 81 19 642 1 641 1 639 -42 682 -12 12 -115
74 -234 141 -25 14 -99 56 -165 95 -66 38 -135 79 -154 89 -19 11 -139 80
-267 154 -260 151 -284 159 -354 121z m149 -127 c260 -147 936 -541 946 -551
6 -6 10 -222 11 -604 l0 -594 -360 -208 c-198 -114 -369 -212 -378 -218 -10
-5 -78 -45 -152 -88 -74 -42 -140 -77 -146 -77 -6 0 -156 84 -333 186 -177
103 -338 195 -357 206 -176 100 -318 183 -330 194 -13 11 -15 88 -15 603 0
375 4 594 10 600 6 6 226 135 490 287 264 152 489 283 500 290 28 20 36 18
114 -26z"/>
<path d="M1287 2084 c-1 -1 -24 -3 -52 -5 -27 -1 -82 -13 -122 -25 -201 -61
-317 -195 -327 -376 -12 -237 121 -381 449 -488 220 -71 275 -116 277 -223 3
-119 -85 -187 -242 -187 -111 0 -255 50 -333 116 -16 14 -33 24 -38 22 -5 -2
-47 -45 -94 -96 l-85 -94 47 -39 c164 -135 394 -195 643 -166 291 34 470 214
471 472 0 241 -118 366 -456 481 -226 76 -275 112 -275 203 0 81 68 140 169
145 109 5 241 -35 324 -98 l34 -26 83 96 82 96 -33 29 c-90 78 -233 141 -351
154 -62 7 -167 13 -171 9z"/>
</g>
</svg>
