<?xml version="1.0" encoding="utf-8"?>
<!-- Generator: Adobe Illustrator 24.1.2, SVG Export Plug-In . SVG Version: 6.00 Build 0)  -->
<svg version="1.1" id="Ebene_2" xmlns="http://www.w3.org/2000/svg" xmlns:xlink="http://www.w3.org/1999/xlink" x="0px" y="0px"
	 viewBox="0 0 525 430" enable-background="new 0 0 525 430" xml:space="preserve">
<path fill="#FFFFFF" d="M442.87,389c6.47-15.16,18.04-27.47,34.42-36.61c3.44-1.92,7.13-3.71,11-5.33V83.94
	c-3.86-1.62-7.56-3.41-11-5.33c-16.76-9.35-28.48-21.99-34.85-37.61h-53.11c-6.39,9.97-20.75,16.67-42.72,19.93
	c-12.37,1.84-23.94,2.11-29.73,2.11c-2.06,0-3.38-0.03-3.72-0.04l-100.39,0c-0.28,0.01-1.6,0.04-3.66,0.04
	c-5.79,0-17.35-0.27-29.73-2.11c-21.96-3.26-36.33-9.96-42.72-19.93H83.56c-6.37,15.61-18.09,28.26-34.85,37.61
	c-3.44,1.92-7.13,3.71-11,5.33v263.13c3.86,1.62,7.56,3.41,11,5.33c16.38,9.14,27.96,21.45,34.42,36.61h53.54
	c6.39-9.97,20.75-16.67,42.72-19.93c12.37-1.84,23.94-2.11,29.73-2.11c2.06,0,3.38,0.04,3.72,0.05l100.39,0
	c0.28-0.01,1.6-0.04,3.65-0.04c5.8,0,17.37,0.27,29.74,2.11c21.96,3.26,36.33,9.96,42.72,19.93H442.87z"/>
<path d="M347.48,428c-2.73,0-5.29-1.08-7.18-3H185.69c-1.89,1.92-4.45,3-7.18,3c-2.73,0-5.29-1.08-7.18-3h-94.4v-6
	c0-6.36-0.77-12.41-2.3-18h-9.4c-0.59,0.06-1.7,0.16-3.16,0.16c-4.84,0-14.16-1.04-22.27-7.97c-9.16-7.83-13.92-20.56-14.16-37.84
	c-10.11-3.4-17.77-4.39-17.85-4.4l-5.29-0.65l0-23.95l23.13-21V125.65l-23.13-21V80.69l5.31-0.64c0.07-0.01,7.71-0.99,17.83-4.39
	c0.06-17.79,4.83-30.86,14.16-38.84c8.11-6.94,17.43-7.97,22.27-7.97c1.46,0,2.57,0.09,3.16,0.16h9.65c1.36-5.32,2.05-11.03,2.05-17
	V6h93.54c1.89-2.49,4.87-4,8.04-4c3.17,0,6.15,1.51,8.04,4h152.89c1.89-2.49,4.87-4,8.04-4s6.15,1.51,8.04,4h93.54v6
	c0,5.97,0.69,11.68,2.05,17h9.65c0.59-0.06,1.7-0.16,3.16-0.16c4.83,0,14.16,1.04,22.27,7.97c9.34,7.98,14.1,21.05,14.16,38.84
	c10.11,3.4,17.76,4.38,17.84,4.39l5.29,0.65l0,23.95l-23.13,21v179.71l23.13,21v23.96l-5.31,0.64c-0.07,0.01-7.71,0.99-17.84,4.39
	c-0.25,17.31-5.01,30.01-14.16,37.84c-8.11,6.94-17.43,7.97-22.27,7.97c-1.46,0-2.57-0.09-3.16-0.16h-9.4
	c-1.53,5.59-2.3,11.64-2.3,18v6h-94.4C352.77,426.92,350.21,428,347.48,428z M437.2,413c0.29-4.1,0.88-8.12,1.77-12h-57.29
	l-1.55-3.69c-6.08-14.5-42.13-18.37-62.47-18.37c-1.48,0-2.89,0.02-4.18,0.06l-100.9,0c-1.35-0.04-2.74-0.06-4.22-0.06
	c-20.35,0-56.42,3.87-62.5,18.37l-1.55,3.69H87.03c0.89,3.88,1.48,7.9,1.77,12h81.01c1.78-3.08,5.06-5,8.71-5
	c3.64,0,6.93,1.92,8.71,5h151.55c1.78-3.08,5.06-5,8.71-5s6.93,1.92,8.71,5H437.2z M37.96,360.34c0.88,11,4.14,18.98,9.72,23.75
	c5.17,4.42,11.19,5.08,14.32,5.08c1.22,0,1.97-0.1,1.97-0.1l0.14-0.02l0.68-0.05h5.06c-5.62-10.43-14.63-19.18-26.84-26.03
	C41.39,362.06,39.7,361.18,37.96,360.34z M462.03,389.07c0,0,0.69,0.09,1.83,0.09c3.21,0,9.36-0.67,14.53-5.13
	c5.53-4.78,8.77-12.73,9.64-23.68c-1.74,0.84-3.43,1.72-5.05,2.63c-12.21,6.85-21.22,15.6-26.84,26.03h5.44L462.03,389.07
	C462.03,389.07,462.03,389.07,462.03,389.07z M442.87,389c6.47-15.16,18.04-27.47,34.42-36.61c3.44-1.92,7.13-3.71,11-5.33V83.94
	c-3.86-1.62-7.56-3.41-11-5.33c-16.76-9.35-28.48-21.99-34.85-37.61h-53.11c-6.39,9.97-20.75,16.67-42.72,19.93
	c-12.37,1.84-23.94,2.11-29.73,2.11c-2.06,0-3.38-0.03-3.72-0.04l-100.39,0c-0.28,0.01-1.6,0.04-3.66,0.04
	c-5.79,0-17.35-0.27-29.73-2.11c-21.96-3.26-36.33-9.96-42.72-19.93H83.56c-6.37,15.61-18.09,28.26-34.85,37.61
	c-3.44,1.92-7.13,3.71-11,5.33v263.13c3.86,1.62,7.56,3.41,11,5.33c16.38,9.14,27.96,21.45,34.42,36.61h53.54
	c6.39-9.97,20.75-16.67,42.72-19.93c12.37-1.84,23.94-2.11,29.73-2.11c2.06,0,3.38,0.04,3.72,0.05l100.39,0
	c0.28-0.01,1.6-0.04,3.65-0.04c5.8,0,17.37,0.27,29.74,2.11c21.96,3.26,36.33,9.96,42.72,19.93H442.87z M500.36,342.73
	c4.41-1.33,8.22-2.22,11.06-2.79v-8.29l-11.06-10.04V342.73z M14.58,339.94c2.85,0.57,6.65,1.46,11.06,2.79V321.6l-11.06,10.04
	V339.94z M500.36,109.4l11.06-10.04v-8.29c-2.85-0.57-6.65-1.46-11.06-2.79V109.4z M25.64,109.4V88.27
	c-4.41,1.33-8.22,2.22-11.06,2.79v8.29L25.64,109.4z M62.14,40.85c-3.21,0-9.36,0.67-14.53,5.13c-5.7,4.93-8.97,13.23-9.72,24.72
	c1.76-0.85,3.48-1.74,5.12-2.67C55.6,60.96,64.79,51.88,70.37,41h-5.96l-0.45-0.07c0,0,0,0,0,0C63.96,40.93,63.27,40.85,62.14,40.85
	z M455.63,41c5.58,10.88,14.77,19.96,27.36,27.03c1.65,0.92,3.36,1.82,5.12,2.67c-0.75-11.54-4.04-19.86-9.79-24.78
	c-5.17-4.42-11.19-5.08-14.32-5.08c-1.22,0-1.96,0.1-1.97,0.1l-0.14,0.02L461.21,41H455.63z M313.42,51
	c1.36,0.04,2.77,0.06,4.26,0.06c20.34,0,56.38-3.87,62.45-18.37l1.55-3.69h57.08c-0.77-3.57-1.29-7.25-1.55-11h-81.68
	c-1.89,2.49-4.87,4-8.04,4s-6.15-1.51-8.04-4H186.55c-1.89,2.49-4.87,4-8.04,4c-3.17,0-6.15-1.51-8.04-4H88.8
	c-0.26,3.75-0.78,7.43-1.55,11h57.08l1.55,3.69c6.08,14.5,42.15,18.37,62.5,18.37c1.52,0,2.91-0.02,4.15-0.06l0.18,0L313.42,51z"/>
<path fill="#C9AD6A" d="M347.48,4c2.98,0,5.57,1.61,6.96,4h92.61v4c0,6.76,0.85,13.09,2.51,19h11.31c0.52-0.06,1.59-0.16,3.04-0.16
	c4.68,0,13.38,1.01,20.96,7.49c8.93,7.64,13.47,20.31,13.47,37.67v1.08c11,3.85,19.48,4.94,19.6,4.95l3.53,0.43l0,21.3l-23.13,21
	v181.47l23.13,21v21.31l-3.54,0.43c-0.12,0.01-8.59,1.1-19.59,4.95V354c0,17.36-4.53,30.03-13.47,37.67
	c-7.58,6.48-16.28,7.49-20.96,7.49c-1.45,0-2.52-0.1-3.04-0.16h-11.03c-1.86,6.19-2.8,12.86-2.8,20v4h-93.29
	c-1.47,1.83-3.74,3-6.28,3c-2.54,0-4.8-1.17-6.28-3H184.79c-1.47,1.83-3.74,3-6.28,3c-2.54,0-4.8-1.17-6.28-3H78.95v-4
	c0-7.14-0.94-13.81-2.8-20H65.12c-0.52,0.06-1.59,0.16-3.04,0.16c-4.68,0-13.38-1.01-20.96-7.49c-8.93-7.64-13.47-20.31-13.47-37.67
	v-0.08c-11-3.85-19.48-4.94-19.6-4.95l-3.53-0.43l0-21.3l23.13-21V124.76l-23.13-21V82.46l3.54-0.43c0.12-0.01,8.59-1.1,19.59-4.95
	V76c0-17.36,4.53-30.03,13.47-37.67c7.58-6.48,16.28-7.49,20.96-7.49c1.45,0,2.52,0.1,3.04,0.16h11.31c1.67-5.91,2.51-12.24,2.51-19
	V8h92.61c1.39-2.39,3.98-4,6.96-4c2.98,0,5.57,1.61,6.96,4h155.04C341.91,5.61,344.51,4,347.48,4L347.48,4z M347.48,20
	c-2.98,0-5.57-1.61-6.96-4H185.48c-1.39,2.39-3.98,4-6.96,4c-2.98,0-5.57-1.61-6.96-4H86.9c-0.25,5.21-0.98,10.22-2.19,15h58.26
	l1.03,2.46c6.81,16.25,45.46,19.6,64.36,19.6c1.54,0,2.96-0.02,4.21-0.06l0.13,0l100.7,0c1.27,0.04,2.69,0.06,4.26,0.06
	c18.92,0,57.51-3.37,64.31-19.6l1.03-2.46h58.26c-1.2-4.78-1.94-9.79-2.19-15h-84.66C353.05,18.39,350.46,20,347.48,20L347.48,20z
	 M490.27,73.89c-0.33-13.81-3.9-23.74-10.63-29.5c-5.67-4.85-12.25-5.57-15.63-5.57c-1.39,0-2.24,0.12-2.26,0.12l-0.6,0.04h-8.68
	c5.57,12.55,15.44,22.85,29.55,30.77C484.77,71.32,487.55,72.69,490.27,73.89L490.27,73.89z M35.73,73.89
	c2.72-1.2,5.5-2.57,8.27-4.12C58.11,61.85,67.98,51.55,73.55,39h-8.99l-0.3-0.04c-0.02,0-0.82-0.11-2.13-0.11
	c-3.37,0-10.15,0.7-15.85,5.62C39.6,50.24,36.06,60.14,35.73,73.89L35.73,73.89z M316.88,61.04c-2.03,0-3.32-0.03-3.66-0.04H212.78
	c-0.34,0.01-1.63,0.04-3.66,0.04c-5.7,0-17.17-0.27-29.43-2.09c-22.08-3.28-36.14-9.98-41.88-19.96H82.19
	c-6.03,15.64-17.65,28.49-34.47,37.86c-4.08,2.28-8.14,4.16-12.03,5.74v38.63v188.53v38.63c3.88,1.58,7.94,3.46,12.03,5.74
	c16.45,9.17,27.93,21.68,34.06,36.86h56.02c5.74-9.97,19.8-16.68,41.88-19.96c12.26-1.82,23.74-2.09,29.43-2.09
	c2.03,0,3.32,0.03,3.66,0.04h100.45c0.34-0.01,1.63-0.04,3.65-0.04c5.69,0,17.17,0.27,29.44,2.09c22.08,3.28,36.14,9.98,41.88,19.96
	h56.02c6.13-15.19,17.61-27.69,34.06-36.86c4.08-2.28,8.14-4.16,12.03-5.74v-38.63V121.24V82.6c-3.88-1.58-7.94-3.46-12.03-5.74
	c-16.81-9.38-28.44-22.22-34.47-37.86H388.2c-5.74,9.97-19.8,16.68-41.88,19.96C334.05,60.78,322.58,61.04,316.88,61.04
	L316.88,61.04z M498.34,113.93l15.09-13.7V89.41c-3.31-0.61-8.69-1.78-15.09-3.86V113.93L498.34,113.93z M27.66,113.93V85.54
	c-6.4,2.08-11.78,3.26-15.09,3.86v10.83L27.66,113.93L27.66,113.93z M498.34,345.46c6.4-2.08,11.78-3.26,15.09-3.86v-10.83
	l-15.09-13.7V345.46L498.34,345.46z M27.66,345.46v-28.39l-15.09,13.7v10.83C15.88,342.2,21.26,343.37,27.66,345.46L27.66,345.46z
	 M452.89,391h8.54l0.3,0.04c0.02,0,0.82,0.11,2.13,0.11c3.38,0,10.15-0.7,15.85-5.62c6.52-5.63,10.05-15.18,10.52-28.41
	c-2.71,1.2-5.48,2.56-8.24,4.11C468.26,368.94,458.54,378.9,452.89,391L452.89,391z M62,391.17c1.39,0,2.24-0.12,2.26-0.12l0.6-0.04
	h8.24c-5.65-12.1-15.37-22.06-29.11-29.77c-2.76-1.55-5.53-2.91-8.24-4.11c0.47,13.29,4.03,22.86,10.61,28.48
	C52.04,390.46,58.62,391.17,62,391.17L62,391.17z M313.29,377l-100.7,0c-1.25-0.04-2.67-0.06-4.22-0.06
	c-18.9,0-57.55,3.36-64.35,19.6l-1.03,2.46H84.46c1.36,5.08,2.18,10.42,2.44,16h84.16c1.19-2.93,4.08-5,7.46-5
	c3.38,0,6.26,2.07,7.46,5h154.05c1.19-2.93,4.08-5,7.46-5s6.26,2.07,7.46,5h84.16c0.26-5.58,1.08-10.92,2.44-16h-58.52l-1.03-2.46
	c-6.81-16.24-45.41-19.6-64.33-19.6c-1.56,0-2.98,0.02-4.25,0.06L313.29,377L313.29,377z M347.48,0c-3.45,0-6.72,1.49-8.98,4h-151
	c-2.27-2.51-5.53-4-8.98-4c-3.45,0-6.72,1.49-8.98,4H78.95h-4.02v4v4c0,5.24-0.54,10.27-1.62,15h-7.96
	c-0.66-0.07-1.8-0.16-3.27-0.16c-5.11,0-14.98,1.1-23.58,8.46c-9.54,8.16-14.53,21.24-14.85,38.91c-9.2,2.96-16.01,3.85-16.09,3.86
	l-3.52,0.43L0.5,78.91v3.54v21.31v1.76l1.31,1.19l21.82,19.81v177.94L1.81,324.28l-1.31,1.19l0,1.76l0,21.3l0,3.54l3.53,0.43
	l3.53,0.43c0.07,0.01,6.9,0.9,16.11,3.86c0.48,17.15,5.47,29.9,14.83,37.9c8.61,7.36,18.47,8.46,23.58,8.46
	c1.47,0,2.61-0.09,3.26-0.16h7.73c1.23,5.01,1.85,10.37,1.85,16v4v4h4.02h91.59c2.19,1.93,5,3,7.98,3c2.98,0,5.79-1.07,7.98-3H339.5
	c2.19,1.93,5,3,7.98,3s5.79-1.07,7.98-3h91.59h4.02v-4v-4c0-5.63,0.62-10.99,1.85-16h7.73c0.66,0.07,1.8,0.16,3.26,0.16
	c5.11,0,14.98-1.1,23.58-8.46c9.36-8,14.34-20.74,14.83-37.9c9.21-2.97,16.04-3.86,16.11-3.86l3.52-0.43l3.54-0.43v-3.54v-21.31
	v-1.76l-1.31-1.19l-21.82-19.81V126.53l21.82-19.81l1.31-1.19l0-1.76l0-21.3l0-3.54l-3.53-0.43l-3.53-0.43
	c-0.07-0.01-6.89-0.89-16.08-3.86c-0.31-17.66-5.31-30.75-14.85-38.91c-8.6-7.36-18.47-8.46-23.58-8.46c-1.47,0-2.61,0.09-3.27,0.16
	h-7.96c-1.08-4.73-1.62-9.76-1.62-15V8V4h-4.02h-90.58C354.2,1.49,350.93,0,347.48,0L347.48,0z M356.65,20h78.7
	c0.22,2.36,0.54,4.7,0.96,7h-53.16h-2.68l-1.03,2.46l-1.03,2.46c-4.92,11.78-34.79,17.14-60.46,17.14c-1.46,0-2.85-0.02-4.12-0.06
	l-0.06,0h-0.06l-100.47,0h-0.03l-0.03,0l-0.13,0l-0.03,0l-0.03,0c-1.26,0.04-2.63,0.06-4.07,0.06c-25.69,0-55.58-5.36-60.51-17.14
	l-1.03-2.46L146.34,27h-2.68H90.5c0.42-2.3,0.74-4.64,0.96-7h78.7c2.26,2.51,5.52,4,8.96,4s6.7-1.49,8.96-4h150.65
	c2.26,2.51,5.52,4,8.96,4S354.39,22.51,356.65,20L356.65,20z M462.32,42.91c0.11-0.01,0.73-0.08,1.68-0.08c0,0,0,0,0,0
	c2.85,0,8.33,0.6,13.01,4.6c4.73,4.05,7.67,10.71,8.77,19.84c-0.61-0.32-1.21-0.65-1.8-0.98c-11.09-6.22-19.46-14.04-24.95-23.29
	h2.1h0.15l0.15-0.01l0.6-0.04l0.17-0.01L462.32,42.91L462.32,42.91z M40.22,67.27c1.09-9.09,4.01-15.73,8.7-19.78
	c4.68-4.04,10.29-4.64,13.22-4.64c0.89,0,1.47,0.06,1.58,0.07l0.25,0.04l0.3,0.04h0.3h2.41c-5.49,9.25-13.86,17.06-24.95,23.29
	C41.43,66.62,40.83,66.95,40.22,67.27L40.22,67.27z M390.41,43h50.69c6.65,15.47,18.48,28.03,35.21,37.35
	c3.14,1.75,6.48,3.39,9.97,4.9v35.98v188.53v35.98c-3.49,1.51-6.83,3.15-9.97,4.9c-16.34,9.11-28.02,21.33-34.76,36.35h-51.14
	c-6.99-9.97-21.6-16.66-43.5-19.91c-12.5-1.85-24.18-2.13-30.03-2.13c-1.97,0-3.27,0.03-3.71,0.04H212.83
	c-0.43-0.01-1.73-0.04-3.72-0.04c-5.85,0-17.53,0.28-30.03,2.13c-21.89,3.25-36.51,9.94-43.5,19.91H84.45
	c-6.74-15.02-18.42-27.24-34.76-36.35c-3.14-1.75-6.48-3.39-9.97-4.9v-35.98V121.24V85.26c3.49-1.51,6.83-3.15,9.97-4.9
	C66.42,71.03,78.25,58.47,84.9,43h50.69c6.99,9.97,21.6,16.66,43.5,19.91c12.5,1.86,24.18,2.13,30.02,2.13
	c2.03,0,3.35-0.03,3.72-0.04h100.33c0.43,0.01,1.74,0.04,3.72,0.04c5.85,0,17.53-0.28,30.03-2.13
	C368.8,59.66,383.42,52.97,390.41,43L390.41,43z M502.37,104.86V90.94c2.64,0.74,5.02,1.31,7.04,1.74v5.79L502.37,104.86
	L502.37,104.86z M16.59,92.68c2.02-0.44,4.4-1.01,7.04-1.74v13.92l-7.04-6.39V92.68L16.59,92.68z M502.37,340.06v-13.92l7.04,6.39
	v5.79C507.39,338.75,505.01,339.32,502.37,340.06L502.37,340.06z M16.59,332.53l7.04-6.39v13.92c-2.64-0.74-5.02-1.31-7.04-1.74
	V332.53L16.59,332.53z M62,387.17c-2.85,0-8.33-0.6-13.01-4.6c-4.55-3.89-7.44-10.18-8.63-18.77c0.56,0.3,1.12,0.6,1.67,0.91
	c10.7,6,18.86,13.48,24.35,22.29h-1.5h-0.15l-0.15,0.01l-0.6,0.04l-0.16,0.01l-0.12,0.02C63.58,387.1,62.96,387.17,62,387.17
	L62,387.17z M459.63,387c5.49-8.81,13.65-16.28,24.35-22.29c0.55-0.31,1.1-0.61,1.67-0.91c-1.19,8.54-4.06,14.82-8.56,18.71
	c-4.68,4.04-10.28,4.64-13.21,4.64c-0.91,0-1.49-0.06-1.59-0.07l-0.25-0.04l-0.3-0.04h-0.3H459.63L459.63,387z M313.29,381h0.03
	l0.03,0l0.13,0l0.03,0l0.03,0c1.27-0.04,2.65-0.06,4.12-0.06c25.73,0,55.68,5.36,60.61,17.14l1.03,2.46l1.03,2.46h2.68h53.47
	c-0.51,2.62-0.89,5.29-1.15,8h-78.06c-2.23-3.1-5.84-5-9.8-5s-7.57,1.9-9.8,5H188.32c-2.23-3.1-5.84-5-9.8-5c-3.96,0-7.57,1.9-9.8,5
	H90.65c-0.25-2.71-0.63-5.38-1.15-8h53.47h2.68l1.03-2.46l1.03-2.46c4.94-11.78,34.89-17.14,60.64-17.14c1.45,0,2.83,0.02,4.09,0.06
	l0.06,0h0.06L313.29,381L313.29,381z"/>
</svg>
